<svg xmlns="http://www.w3.org/2000/svg" viewBox="0 0 800 800">
  <g stroke-width="2" stroke="#8e8e93" fill="none">
    <path d="M634 146.057c93.7 157.325 116.604 549.527 12.4 639.868s-418.879-48.907-512.579-206.232c-93.7-157.326-41.385-458.589 62.819-548.93S540.3-11.269 634 146.057c93.7 157.325 116.604 549.527 12.4 639.868"/>
    <path d="M622.858 158.15c89.238 149.833 111.05 523.359 11.809 609.398-99.242 86.039-398.932-46.579-488.17-196.412-89.239-149.834-39.416-436.751 59.826-522.79S533.62 8.316 622.858 158.15s111.05 523.36 11.809 609.399"/>
    <path d="M611.715 170.242c84.776 142.342 105.498 497.191 11.219 578.928s-378.986-44.25-463.762-186.59c-84.777-142.342-37.445-414.913 56.835-496.65S526.938 27.9 611.715 170.243c84.776 142.342 105.498 497.191 11.219 578.928"/>
    <path d="M600.572 182.334c80.314 134.85 99.946 471.024 10.628 548.459-89.317 77.435-359.039-41.92-439.353-176.77S136.373 160.945 225.69 83.51s294.566-36.027 374.88 98.823 99.947 471.024 10.63 548.459"/>
    <path d="M589.429 194.427c75.852 127.358 94.394 444.856 10.038 517.989s-339.093-39.592-414.945-166.95c-75.853-127.36-33.503-371.239 50.853-444.372s278.201-34.026 354.054 93.333c75.852 127.358 94.394 444.856 10.038 517.989"/>
    <path d="M578.286 206.52c71.39 119.866 88.841 418.687 9.448 487.518-79.394 68.831-319.146-37.262-390.537-157.13-71.39-119.866-31.532-349.4 47.862-418.231 79.393-68.831 261.836-32.025 333.227 87.842s88.841 418.688 9.448 487.52"/>
    <path d="M567.143 218.612c66.929 112.375 83.289 392.52 8.857 457.049-74.431 64.529-299.199-34.934-366.128-147.31-66.928-112.374-29.56-327.562 44.87-392.091 74.432-64.53 245.472-30.023 312.401 82.352S650.432 611.132 576 675.66"/>
    <path d="M556 230.704c62.467 104.884 77.736 366.352 8.267 426.58-69.47 60.227-279.253-32.605-341.72-137.489-62.466-104.884-27.59-305.726 41.88-365.953C333.895 93.615 493.532 125.821 556 230.704c62.467 104.884 77.736 366.352 8.267 426.58"/>
    <path d="M544.857 242.797c58.005 97.392 72.184 340.184 7.677 396.11-64.508 55.924-259.306-30.277-317.311-127.669s-25.62-283.888 38.887-339.813 212.743-26.02 270.747 71.372 72.184 340.184 7.677 396.11"/>
    <path d="M533.715 254.89c53.542 89.9 66.63 314.015 7.085 365.639-59.545 51.623-239.36-27.947-292.902-117.848-53.543-89.9-23.65-262.05 35.896-313.673 59.545-51.624 196.378-24.019 249.92 65.881s66.631 314.016 7.086 365.64"/>
    <path d="M522.572 266.982c49.08 82.409 61.078 287.848 6.495 335.17-54.583 47.32-219.413-25.619-268.494-108.027-49.081-82.409-21.678-240.213 32.905-287.535 54.583-47.321 180.013-22.017 229.094 60.392s61.078 287.848 6.495 335.17"/>
    <path d="M511.429 279.075c44.619 74.916 55.525 261.68 5.904 304.699s-199.466-23.29-244.085-98.206c-44.619-74.917-19.707-218.376 29.914-261.395 49.62-43.02 163.648-20.015 208.267 54.902 44.619 74.916 55.525 261.68 5.904 304.699"/>
    <path d="M500.286 291.167c40.157 67.425 49.973 235.512 5.314 274.23-44.659 38.717-179.52-20.96-219.677-88.386s-17.736-196.538 26.923-235.255c44.658-38.718 147.283-18.014 187.44 49.411s49.973 235.512 5.314 274.23"/>
    <path d="M489.143 303.26c35.695 59.933 44.42 209.344 4.724 243.76-39.697 34.415-159.573-18.632-195.268-78.566-35.696-59.933-15.766-174.7 23.93-209.116 39.697-34.415 130.919-16.012 166.614 43.922s44.42 209.344 4.724 243.76"/>
    <path d="M478 315.352c31.233 52.442 38.868 183.176 4.133 213.29-34.734 30.113-139.626-16.303-170.86-68.744-31.233-52.442-13.794-152.863 20.94-182.977 34.735-30.113 114.554-14.01 145.787 38.431 31.233 52.442 38.868 183.176 4.133 213.29"/>
    <path d="M466.857 327.445c26.772 44.95 33.316 157.008 3.543 182.82-29.772 25.811-119.68-13.974-146.451-58.924-26.772-44.95-11.825-131.025 17.948-156.837s98.189-12.01 124.96 32.94 33.316 157.009 3.543 182.82"/>
    <path d="M455.714 339.537c22.31 37.459 27.763 130.84 2.953 152.35s-99.733-11.645-122.043-49.103-9.854-109.188 14.957-130.697c24.81-21.51 81.824-10.008 104.133 27.45 22.31 37.459 27.763 130.84 2.953 152.35"/>
    <path d="M444.571 351.63c17.848 29.967 22.21 104.672 2.362 121.88s-79.786-9.316-97.634-39.283-7.883-87.35 11.966-104.558c19.848-17.208 65.459-8.006 83.306 21.96 17.848 29.968 22.21 104.673 2.362 121.88"/>
    <path d="M433.429 363.722c13.385 22.475 16.657 78.504 1.771 91.41s-59.84-6.987-73.226-29.462-5.912-65.512 8.975-78.418c14.886-12.906 49.094-6.005 62.48 16.47s16.657 78.504 1.771 91.41"/>
    <path d="M422.286 375.815c8.924 14.983 11.105 52.336 1.18 60.94-9.923 8.604-39.893-4.658-48.816-19.641-8.924-14.984-3.942-43.675 5.982-52.28 9.925-8.603 32.73-4.002 41.654 10.98 8.924 14.984 11.105 52.337 1.18 60.94"/>
    <path d="M411.143 387.907c4.462 7.492 5.552 26.168.59 30.47s-19.946-2.329-24.408-9.82c-4.462-7.492-1.97-21.838 2.991-26.14s16.365-2.001 20.827 5.49c4.462 7.492 5.552 26.168.59 30.47"/>
  </g>
</svg>
