<svg xmlns="http://www.w3.org/2000/svg" version="1.1" xmlns:xlink="http://www.w3.org/1999/xlink" xmlns:svgjs="http://svgjs.dev/svgjs" viewBox="0 0 800 800" opacity="1"><g stroke-width="2" stroke="#8e8e93" fill="none"><path d="M698.0468846883937 259.0463728783091C732.4691993790783 352.0545805872116 712.1227995736253 536.1854807402378 658.2241504962423 619.4342529685416C604.3255014188594 702.6830251968455 518.7761277592566 682.112683166078 439.33336911695596 658.6404795741672C359.89061047465543 635.1682759822564 349.0543851951127 612.5565501930726 276.8989090131995 506.76767572737117C204.74343283128627 400.9788012616698 47.96663949215775 220.38988625579134 92.98708344377366 150.85388213879963C138.00752739538962 81.31787802180793 366.9429147216605 150.45475372841196 492.9970399809563 172.99485596580996C619.051165240252 195.5349582032079 663.624569997709 166.03816516940668 698.0468846883937 259.0463728783091C732.4691993790783 352.0545805872116 712.1227995736253 536.1854807402378 658.2241504962423 619.4342529685416 "></path><path d="M683.8541788001444 265.7584300152423C716.6373356484155 354.3376754522923 697.2598120241745 529.7004375027934 645.9277652838097 608.9849824821306C594.595718543445 688.2695274614675 513.1201245819185 668.6787255274031 437.46035444639415 646.3242459160597C361.8005843108697 623.969766304716 351.4803697589242 602.4347893626361 282.7608686332926 501.68348034768246C214.04136750766105 400.9321713327287 64.73013575611003 228.9427284699873 107.60674904336332 162.71796264428093C150.48336233061661 96.49319681857452 368.5170645461127 162.33784034867358 488.5686124121087 183.8046043842907C608.6201602781045 205.27136841990784 651.0710219518731 177.1791845781924 683.8541788001444 265.7584300152423C716.6373356484155 354.3376754522923 697.2598120241745 529.7004375027934 645.9277652838097 608.9849824821306 "></path><path d="M669.6613508415824 272.4705634461208C700.80534984744 356.62084661131826 682.396702404411 523.2154705592943 633.6312580010646 598.5357882896645C584.865813597718 673.8561060200348 507.4639993342679 655.2448441826737 435.5872177055197 634.0080885518972C363.71043607677154 612.7713329211208 353.90623225242337 592.3131048261448 288.6227061830733 496.59936126193884C223.33918011372333 400.88561769773287 81.49350994974986 237.49564697812855 122.22629257264049 174.58211944370748C162.95907519553106 111.66859190928642 370.0910923002524 174.22100326288057 484.14006277294857 194.61442909671678C598.1890332456446 215.00785493055304 638.5173518357249 188.32028028092338 669.6613508415824 272.4705634461208C700.80534984744 356.62084661131826 682.396702404411 523.2154705592943 633.6312580010646 598.5357882896645 "></path><path d="M655.4687670236455 279.18265110063214C684.9736081870894 358.90397199397717 667.5338369252726 516.7304578394283 621.3349948589444 588.0865483208315C575.136152792616 659.4426388022348 501.8081182272423 641.8109170615769 433.7143251052703 621.6918854113676C365.6205319832984 601.5728537611585 356.3323388865474 582.1913745132865 294.48478787347904 491.51519639982814C232.63723686041055 400.8390182863699 98.2571282840147 246.04851970990262 136.8460802425426 186.4462304667669C175.43503220107056 126.84394122363113 371.665364195017 186.10412040072032 479.71175727441346 205.4242080327757C587.7581503538097 224.7442956648311 625.9639258602015 199.46133020728723 655.4687670236455 279.18265110063214C684.9736081870894 358.90397199397717 667.5338369252726 516.7304578394283 621.3349948589444 588.0865483208315 "></path><path d="M641.276045876607 285.89470823756534C669.1417291976375 361.18706685905784 652.6708341170327 510.24541460198384 609.0385943877226 577.6372778344203C565.4063546584125 645.0291410668568 496.1520997911151 628.376959422902 431.8412951759194 609.37565175326C367.5304905607236 590.3743440836181 358.75830819157 572.0696136828501 300.34673223478313 486.43100102013943C241.93515627799627 400.79238835742876 115.02060928917791 254.60136192409857 151.4657305833432 198.31031097224815C187.9108518775085 142.01926002039772 373.23949876068014 197.98720702098194 475.2833144467768 216.23395645125646C577.3271301328732 234.48070588153104 613.4103625555765 210.6023496160729 641.276045876607 285.89470823756534C669.1417291976375 361.18706685905784 652.6708341170327 510.24541460198384 609.0385943877226 577.6372778344203 "></path><path d="M627.0832942119904 292.6068111508657C653.3098196906074 363.4702075005057 637.8078007912146 503.7604171409066 596.7421633989228 567.1880531243762C555.6765260066309 630.6156891078459 490.4960508374098 614.9430475605943 429.9682347289903 597.0594638715196C369.44041862057077 579.1758801824446 361.18424697901446 561.9478986287808 306.2086460785091 481.3468514168178C251.23304517800386 400.74580420485484 131.78405977676306 263.1542499146617 166.08535040656568 210.17443725409657C200.38664103636825 157.1946245935315 374.81360280876515 209.87033941761075 470.8548411015619 227.04375064610446C566.8960793943586 244.2171618745981 600.8567687333735 221.74341480122575 627.0832942119904 292.6068111508657C653.3098196906074 363.4702075005057 637.8078007912146 503.7604171409066 596.7421633989228 567.1880531243762 "></path><path d="M612.89060358253 299.3188682877989C637.4779712187335 365.75330236558636 622.9448285005527 497.2753739034623 584.4457934452792 556.7387826379651C545.9467583900055 616.2021913724678 484.84006291886067 601.5090899219196 428.09523531721743 584.7432302134118C371.3504077155742 567.9773705049042 363.61024680161506 551.8261377983442 312.0706209573914 476.26265603712886C260.53099511316765 400.6991742759137 148.5475712995044 271.70709212885765 180.70503126494435 222.03851775957787C212.8624912303843 172.3699433902981 376.3877678920064 221.75342603787237 466.4264287915033 237.8534990645852C556.4650896910002 253.95357209129804 588.3032359463268 232.88443421001148 612.89060358253 299.3188682877989C637.4779712187335 365.75330236558636 622.9448285005527 497.2753739034623 584.4457934452792 556.7387826379651 "></path><path d="M598.6978824354917 306.03095594231024C621.6460922292814 368.03642774824516 608.0818256923128 490.790361183596 572.1493929740575 546.2895426691321C536.2169602558021 601.7887241546679 479.1840444827336 588.0751628008229 426.22220538786655 572.4270270728823C373.2603662929994 556.7788913449418 366.03621610663754 541.704407485486 317.9325653186955 471.1784911750183C269.82891453075337 400.6525748645506 165.31105230466767 280.2599648606317 195.32468160574496 233.90262878263724C225.33831090682224 187.5452927046428 377.96190245766957 233.63654317571212 461.99798596386665 248.66327800064414C546.0340694700637 263.6900128255761 575.7496726417019 244.02548413637527 598.6978824354917 306.03095594231024C621.6460922292814 368.03642774824516 608.0818256923128 490.790361183596 572.1493929740575 546.2895426691321 "></path><path d="M584.5051765472422 312.74301307924344C605.8142284986184 370.31952261332594 593.2188381428618 484.3053179461517 559.8530077616247 535.8402721827208C526.4871773803876 587.3752264192899 473.5280413053954 574.641205162148 424.3491907173046 560.1107934147747C375.17034012921374 545.5803816674013 368.4622006704492 531.5826466550493 323.79452493878864 466.09429579532946C279.1268492071281 400.6059449356096 182.07454856861995 288.8128070748277 209.94434720533462 245.76670928811853C237.81414584204924 202.7206115014094 379.53605228212166 245.5196297959738 457.56955839501904 259.4730264191249C535.6030645079163 273.42642304227604 563.196124595866 255.166503545161 584.5051765472422 312.74301307924344C605.8142284986184 370.31952261332594 593.2188381428618 484.3053179461517 559.8530077616247 535.8402721827208 "></path><path d="M570.312501176571 319.45507021617664C589.9823952855336 372.6026174784066 578.355881110989 477.8202747087073 547.5566530667702 525.3910016963096C516.7574250225513 572.9617286839118 467.8720686456355 561.2072475234731 422.4762065643208 547.794559756667C377.08034448300623 534.3818719898609 370.88821575183897 521.4608858246129 329.65651507646 461.01010041564064C288.424814401081 400.5593150066684 198.8380753501504 297.3656492890236 224.56404332250236 257.6307897935998C250.2900112948543 217.89593029817598 381.110232624152 257.4027164162354 453.14116134374956 270.2827748376057C525.172090063347 283.1628332589759 550.6426070676082 266.30752295394666 570.312501176571 319.45507021617664C589.9823952855336 372.6026174784066 578.355881110989 477.8202747087073 547.5566530667702 525.3910016963096 "></path><path d="M556.1197952883215 326.16715787068796C574.1505315548707 374.8857428610654 563.4928935615382 471.335261988841 535.2602678543376 514.9417617274764C507.02764214713693 558.5482614661119 462.2160654682973 547.7733204023764 420.603191893759 535.4783566161375C378.99031831922053 523.1833928298985 373.3142003156505 511.3391555117545 335.51847469655314 455.92593555352994C297.7227490774558 400.51271559530545 215.60157161410274 305.9185220207977 239.18370892209202 269.4949008166592C262.7658462300813 233.0712796125207 382.6843824486042 269.28583355407517 448.71273377490195 281.0925537736646C514.7410851011997 292.899273993254 538.0890590217724 277.4485728803105 556.1197952883215 326.16715787068796C574.1505315548707 374.8857428610654 563.4928935615382 471.335261988841 535.2602678543376 514.9417617274764 "></path><path d="M541.9270588824941 332.8792455251993C558.3186373066296 377.16886824372426 548.6298754945092 464.85024926897484 522.9638521243266 504.4925217586434C497.29782875414435 544.1347942483119 456.56003177338107 534.3393932812796 418.73014670561895 523.162153475608C380.9002616378567 511.9849136699361 375.740154361884 501.2174251988962 341.3804037990682 450.84177069141936C307.02065323625243 400.46611618394246 232.3650373604769 314.47139475257177 253.80334400410356 281.35901183971856C275.2416506477302 248.24662892686536 384.2585017554782 281.1689506919149 444.2842756884762 291.9023327097235C504.31004962147415 302.63571472753205 525.5354804583585 288.5896228066743 541.9270588824941 332.8792455251993C558.3186373066296 377.16886824372426 548.6298754945092 464.85024926897484 522.9638521243266 504.4925217586434 "></path><path d="M527.7343682530336 339.59131792092154C542.4867888347557 379.45197836759405 533.7669032038473 458.3652212903196 510.6674821706831 494.04326653102123C487.56806113751895 529.7213117717229 450.904043854832 520.9054509013939 416.8571472938461 510.84593507628927C382.81025073286014 500.7864192511847 378.16615418448464 491.0956796272487 347.24237867795046 445.7575905705196C316.3186031714162 400.4195015137904 249.1285488832183 323.0242522255568 268.42302486248224 293.2231076039889C287.71750084174624 263.42196298242106 385.83266683871943 293.0520525709656 439.85586337841767 302.7120963869933C493.8790599181158 312.372140203021 512.9819476713117 299.7306574742491 527.7343682530336 339.59131792092154C542.4867888347557 379.45197836759405 533.7669032038473 458.3652212903196 510.6674821706831 494.04326653102123 "></path><path d="M513.5416623647843 346.30340557543286C526.6549251040927 381.73510375025285 518.9039156543963 451.8802085704533 498.3710969582505 483.5940265621881C477.8382782621045 515.3078445539229 445.2480406774939 507.47152378029716 414.9841326232842 498.52973193575986C384.72022456907445 489.5879400912223 380.5921387482963 480.97394931439044 353.1043382980436 440.6734257084089C325.616537847791 400.3729021024274 265.89204514717056 331.57712495733085 283.0426904620719 305.0872186270483C300.1933357769732 278.5973122967657 387.40681666317164 304.9351697088054 435.42743580957 313.5218753230522C483.44805495596836 322.10858093729905 500.4283996254758 310.8717074006129 513.5416623647843 346.30340557543286C526.6549251040927 381.73510375025285 518.9039156543963 451.8802085704533 498.3710969582505 483.5940265621881 "></path><path d="M499.3489564765349 353.01546271236606C510.8230613734297 384.0181986153335 504.04092810494546 445.39516533300895 486.0747117458178 473.14475607577697C468.10849538669004 500.8943468185448 439.59203750015587 494.0375661416224 413.11111795272234 486.2134982776521C386.63019840528875 478.3894304136818 383.01812331210783 470.8521884839539 358.9662979181368 435.5892303287201C334.9144725241657 400.32627217348625 282.6555414111229 340.1299671715268 297.6623560616615 316.9512991325296C312.6691707122002 293.7726310935323 388.98096648762385 316.818256329067 430.9990082407224 324.331623741533C473.01704999382093 331.844991153999 487.87485157964 322.0127268093986 499.3489564765349 353.01546271236606C510.8230613734297 384.0181986153335 504.04092810494546 445.39516533300895 486.0747117458178 473.14475607577697 "></path><path d="M485.1562505882855 359.7275503668774C494.9911976427668 386.30132399799237 489.1779405554945 438.9101526131427 473.7783265333851 462.69551610694384C458.37871251127564 486.48087960074497 433.93603432281776 480.60363902052563 411.2381032821604 473.89729513712257C388.5401722415031 467.1909512537195 385.4441078759195 460.7304581710955 364.82825753823 430.5050654666094C344.2124072005405 400.27967276212325 299.4190376750752 348.6828399033009 312.2820216612512 328.81541015558895C325.1450056474272 308.947980407877 390.555116312076 328.7013734669068 426.5705806718748 335.1414026775919C462.5860450316735 341.58143188827705 475.3213035338041 333.1537767357624 485.1562505882855 359.7275503668774C494.9911976427668 386.30132399799237 489.1779405554945 438.9101526131427 473.7783265333851 462.69551610694384 "></path><path d="M470.96352944124703 366.43962276259964C479.1593186533148 388.58443412186216 474.3149377472546 432.4251246344874 461.4819260621633 452.2462608793217C448.6489143770722 472.06739712415595 428.28001588669053 467.1696966406398 409.3650733528095 461.581076737804C390.45013081892836 455.99245683496804 387.870077180942 450.6087125994481 370.6902018995341 425.4208853457097C353.5103266181262 400.2330580919712 316.18251868023845 357.2356973762859 326.9016720020518 340.6795059198593C337.62082532386506 324.1233144634327 392.1292508777391 340.58447534595746 422.1421378442381 345.95116635486175C452.1550248107371 351.317857363766 462.76774022917925 344.2948114033372 470.96352944124703 366.43962276259964C479.1593186533148 388.58443412186216 474.3149377472546 432.4251246344874 461.4819260621633 452.2462608793217 "></path><path d="M456.7708388117867 373.1516951583219C463.3274701814409 390.8675442457319 459.4519654565927 425.9400966558321 449.1855561085198 441.7970056516995C438.9191467604468 457.6539146475669 422.6240279681415 453.73575426075405 407.49207394103667 449.2648583384854C392.3601199139317 444.79396241621663 390.2960770035427 440.4869670278007 376.5521767784163 420.3367052248099C362.80827655329 400.18644342181915 332.94603020297984 365.7885548492709 341.52135286043045 352.5436016841296C350.0966755178811 339.29864851898833 393.70341596098035 352.46757722500814 417.7137255341795 356.76093003213157C441.7240351073787 361.054282839255 450.2142074421324 355.4358460709119 456.7708388117867 373.1516951583219C463.3274701814409 390.8675442457319 459.4519654565927 425.9400966558321 449.1855561085198 441.7970056516995 "></path><path d="M442.5781329235373 379.8637828128332C447.4956064507779 393.1506696283907 444.5889779071418 419.4550839359659 436.8891708960871 431.34776568286645C429.1893638850323 443.240447429767 416.9680247908034 440.30182713965735 405.61905927047474 436.9486551979558C394.2700937501461 433.5954832562543 392.7220615673543 430.3652367149423 382.4141363985095 415.2525403626992C372.1062112296648 400.13984401045616 349.7095264669321 374.34142758104497 356.1410184600201 364.40771270718903C362.5725104531081 354.47399783333304 395.27756578543256 364.3506943628479 413.2852979653319 367.5707089681905C431.2930301452313 370.79072357353306 437.6606593962966 366.57689599727576 442.5781329235373 379.8637828128332C447.4956064507779 393.1506696283907 444.5889779071418 419.4550839359659 436.8891708960871 431.34776568286645 "></path><path d="M428.3854117764988 386.5758552085555C431.66372746132595 395.4337797522605 429.7259750989018 412.9700559573106 424.59277042486536 420.8985104552443C419.45956575082886 428.826964953178 411.3120063546762 426.8678847597716 403.7460293411238 424.63243679863723C396.18005232757133 422.3969888375029 395.1480308723768 420.2434911432949 388.2760807598136 410.1683602417995C381.4041306472505 400.0932293403041 366.4730074720954 382.89428505403 370.7606688008207 376.27180847145934C375.04833012954606 369.6493318888887 396.85170035109564 376.23379624189863 408.8568551376952 378.3804726454603C420.86200992429485 380.52714904902206 425.1070960916717 377.7179306648505 428.3854117764988 386.5758552085555C431.66372746132595 395.4337797522605 429.7259750989018 412.9700559573106 424.59277042486536 420.8985104552443 "></path><path d="M414.1927058882494 393.28792760427774C415.831863730663 397.71688987613027 414.8629875494509 406.4850279786553 412.29638521243265 410.44925522762213C409.72978287541446 414.413482476589 405.6560031773381 413.43394237988576 401.8730146705619 412.3162183993186C398.0900261637857 411.1984944187514 397.5740154361884 410.1217455716474 394.13804037990684 405.08418012089976C390.7020653236252 400.04661467015205 383.23650373604767 391.447142527015 385.38033440041033 388.1359042357297C387.524165064773 384.82466594444435 398.4258501755478 388.1168981209493 404.4284275688476 389.1902363227302C410.4310049621474 390.263574524511 412.55354804583584 388.85896533242527 414.1927058882494 393.28792760427774C415.831863730663 397.71688987613027 414.8629875494509 406.4850279786553 412.29638521243265 410.44925522762213 "></path></g></svg>