<svg xmlns="http://www.w3.org/2000/svg" viewBox="0 0 800 800">
  <g stroke-width="2" stroke="#8e8e93" fill="none">
    <path d="M646.32 288.13c43.618 128.845 105.187 412.472 40.88 475.155S439.418 661.17 337.647 589.007c-101.772-72.16-89.856-57.402-138.949-172.095S43.846 95.166 102 38.482c58.153-56.685 262.434 54.334 375.834 106.343S602.702 159.283 646.32 288.13s105.187 412.473 40.88 475.156"/>
    <path d="M634.59 293.456c41.541 122.71 100.178 392.832 38.934 452.53S437.54 648.732 340.616 580.007s-85.577-54.669-132.332-163.9S60.806 109.682 116.19 55.697s249.937 51.746 357.937 101.28 118.922 13.769 160.463 136.48 100.178 392.831 38.934 452.53"/>
    <path d="M622.86 298.784c39.465 116.574 95.17 373.19 36.987 429.903s-224.183-92.392-316.262-157.68S262.287 519.07 217.87 415.3 77.766 124.198 130.38 72.911c52.615-51.285 237.44 49.16 340.04 96.217 102.6 47.056 112.977 13.08 152.44 129.656 39.465 116.574 95.17 373.19 36.987 429.903"/>
    <path d="M611.131 304.11c37.387 110.44 90.16 353.55 35.04 407.278s-212.384-87.53-299.617-149.382c-87.232-61.852-77.019-49.202-119.098-147.51-42.08-98.308-132.73-275.782-82.885-324.369 49.846-48.587 224.943 46.572 322.144 91.152s107.03 12.392 144.416 122.832c37.387 110.439 90.16 353.548 35.04 407.277"/>
    <path d="M599.402 309.438c35.31 104.304 85.151 333.907 33.093 384.65-52.058 50.744-200.585-82.666-282.972-141.082s-72.74-46.469-112.482-139.315-125.356-260.461-78.28-306.349c47.077-45.887 212.447 43.985 304.247 86.088s101.084 11.704 136.394 116.008 85.151 333.907 33.093 384.65"/>
    <path d="M587.672 314.765c33.233 98.168 80.143 314.265 31.147 362.024-48.996 47.758-188.786-77.803-266.326-132.783s-68.461-43.736-105.866-131.12c-37.404-87.386-117.982-245.14-73.675-288.329 44.307-43.188 199.95 41.398 286.35 81.024 86.4 39.627 95.137 11.016 128.37 109.184s80.143 314.265 31.147 362.024"/>
    <path d="M575.943 320.092c31.155 92.033 75.133 294.624 29.2 339.398-45.934 44.773-176.987-72.941-249.681-124.485s-64.182-41.002-99.249-122.925c-35.067-81.924-110.608-229.818-69.07-270.308s187.452 38.81 268.452 75.96 89.192 10.328 120.348 102.36c31.155 92.033 75.133 294.624 29.2 339.398"/>
    <path d="M564.213 325.42c29.079 85.897 70.125 274.982 27.254 316.77-42.872 41.789-165.188-68.078-233.036-116.185-67.847-48.107-59.903-38.268-92.632-114.73s-103.235-214.498-64.466-252.287S376.29 195.21 451.89 229.884s83.246 9.638 112.324 95.535c29.079 85.898 70.125 274.983 27.254 316.771"/>
    <path d="M552.484 330.747c27.001 79.761 65.115 255.34 25.306 294.144S424.402 561.676 361.4 517.005c-63-44.672-55.624-35.535-86.015-106.536-30.391-71-95.861-199.176-59.861-234.266s162.459 33.635 232.659 65.832 77.3 8.95 104.3 88.712c27.002 79.761 65.116 255.34 25.307 294.144"/>
    <path d="M540.754 336.074c24.925 73.626 60.107 235.699 23.36 271.518s-141.59-58.353-199.744-99.588c-58.155-41.235-51.346-32.801-79.4-98.34-28.053-65.539-88.486-183.855-55.256-216.246s149.962 31.048 214.762 60.768 71.354 8.262 96.278 81.888 60.107 235.699 23.36 271.518"/>
    <path d="M529.025 341.401c22.847 67.49 55.098 216.057 21.413 248.891s-129.79-53.49-183.1-91.288c-53.308-37.799-47.066-30.068-72.782-90.145-25.715-60.078-81.113-168.534-50.651-198.226 30.46-29.692 137.465 28.46 196.865 55.704 59.4 27.243 65.407 7.573 88.255 75.064s55.098 216.057 21.413 248.891"/>
    <path d="M517.295 346.728c20.77 61.355 50.09 196.416 19.467 226.265-30.622 29.85-117.992-48.627-166.454-82.99s-42.788-27.334-66.166-81.95-73.739-153.212-46.047-180.205c27.692-26.992 124.969 25.874 178.969 50.64s59.46 6.885 80.231 68.24 50.09 196.416 19.467 226.265"/>
    <path d="M505.566 352.055c18.693 55.22 45.08 176.775 17.52 203.639s-106.193-43.765-149.809-74.69c-43.616-30.927-38.51-24.602-59.55-73.756s-66.364-137.891-41.441-162.184c24.922-24.294 112.471 23.286 161.071 45.576s53.515 6.196 72.209 61.415c18.693 55.22 45.08 176.775 17.52 203.639"/>
    <path d="M493.836 357.383c16.616 49.084 40.071 157.132 15.573 181.011-24.497 23.88-94.393-38.901-133.163-66.391s-34.23-21.868-52.932-65.56-58.992-122.57-36.838-144.164 99.975 20.698 143.175 40.512c43.2 19.813 47.569 5.507 64.185 54.592s40.071 157.132 15.573 181.011"/>
    <path d="M482.107 362.71c14.539 42.948 35.062 137.49 13.626 158.385-21.435 20.894-82.594-34.039-116.517-58.093-33.924-24.053-29.952-19.134-46.317-57.365-16.364-38.23-51.617-107.248-32.232-126.143s87.478 18.111 125.278 35.448c37.8 17.336 41.622 4.82 56.162 47.768s35.062 137.49 13.626 158.385"/>
    <path d="M470.377 368.037c12.462 36.813 30.053 117.85 11.68 135.759-18.373 17.91-70.795-29.176-99.872-49.794-29.078-20.617-25.673-16.4-39.7-49.17-14.026-32.77-44.243-91.927-27.628-108.123s74.981 15.524 107.381 30.384 35.677 4.13 48.14 40.944c12.461 36.813 30.052 117.85 11.68 135.759"/>
    <path d="M458.648 373.364c10.385 30.678 25.044 98.208 9.733 113.133s-58.996-24.314-83.227-41.495-21.394-13.668-33.083-40.975-36.87-76.606-23.023-90.103 62.484 12.937 89.484 25.32 29.73 3.442 40.116 34.12 25.044 98.208 9.733 113.133"/>
    <path d="M446.918 378.691c8.308 24.542 20.036 78.567 7.787 90.506s-47.197-19.45-66.582-33.196-17.115-10.933-26.466-32.78c-9.351-21.846-29.496-61.285-18.419-72.082s49.987 10.35 71.587 20.256 23.785 2.754 32.093 27.296 20.036 78.567 7.787 90.506"/>
    <path d="M435.189 384.018c6.23 18.407 15.026 58.925 5.84 67.88S405.63 437.31 391.092 427s-12.836-8.2-19.85-24.585c-7.013-16.385-22.121-45.964-13.813-54.062s37.49 7.763 53.69 15.192 17.838 2.066 24.07 20.472c6.23 18.407 15.026 58.925 5.84 67.88"/>
    <path d="M423.459 389.346c4.154 12.27 10.018 39.283 3.893 45.253-6.124 5.97-23.598-9.726-33.29-16.598-9.693-6.873-8.558-5.467-13.234-16.39-4.675-10.923-14.747-30.643-9.209-36.041 5.538-5.399 24.994 5.174 35.794 10.128s11.892 1.377 16.046 13.648 10.018 39.283 3.893 45.253"/>
    <path d="M411.73 394.673c2.077 6.135 5.008 19.641 1.946 22.626s-11.799-4.862-16.645-8.299-4.279-2.733-6.617-8.195-7.374-15.32-4.604-18.02 12.496 2.587 17.896 5.064 5.946.688 8.024 6.824c2.077 6.135 5.008 19.641 1.946 22.626"/>
  </g>
</svg>
